<mxfile host="app.diagrams.net" modified="2022-04-15T10:52:45.381Z" agent="5.0 (Windows NT 10.0; Win64; x64) AppleWebKit/537.36 (KHTML, like Gecko) Chrome/100.0.4896.88 Safari/537.36" etag="xc9yD16HrcS86yhK9Kbb" version="17.4.0" type="github">
  <diagram id="Qfcq4tevY37aQI6dxtWr" name="Page-1">
    <mxGraphModel dx="1422" dy="1896" grid="1" gridSize="10" guides="1" tooltips="1" connect="1" arrows="1" fold="1" page="1" pageScale="1" pageWidth="827" pageHeight="1169" math="0" shadow="0">
      <root>
        <mxCell id="0" />
        <mxCell id="1" parent="0" />
        <mxCell id="wEk-1-X2-ZqiwSnDbFUu-1" value="&lt;div&gt;&lt;span style=&quot;font-size: 14.04pt ; font-family: &amp;quot;times new roman&amp;quot; ; color: rgb(0 , 0 , 0) ; font-style: italic&quot;&gt;V &lt;/span&gt;&lt;span style=&quot;font-size: 14.04pt ; font-family: &amp;quot;times new roman&amp;quot; ; color: rgb(0 , 0 , 0)&quot;&gt;= {&lt;/span&gt;&lt;span style=&quot;font-size: 14.04pt ; font-family: &amp;quot;times new roman&amp;quot; ; color: rgb(0 , 0 , 0) ; font-style: italic&quot;&gt;s&lt;/span&gt;&lt;span style=&quot;font-size: 14.04pt ; font-family: &amp;quot;times new roman&amp;quot; ; color: rgb(0 , 0 , 0)&quot;&gt;,1,2,3,4,5,6,7,8,9,10,11,12,13,&lt;/span&gt;&lt;span style=&quot;font-size: 14.04pt ; font-family: &amp;quot;times new roman&amp;quot; ; color: rgb(0 , 0 , 0) ; font-style: italic&quot;&gt;t&lt;/span&gt;&lt;span style=&quot;font-size: 14.04pt ; font-family: &amp;quot;times new roman&amp;quot; ; color: rgb(0 , 0 , 0)&quot;&gt;), считаем, что &lt;/span&gt;&lt;span style=&quot;font-size: 14.04pt ; font-family: &amp;quot;times new roman&amp;quot; ; color: rgb(0 , 0 , 0) ; font-style: italic&quot;&gt;s &lt;/span&gt;&lt;span style=&quot;font-size: 14.04pt ; font-family: &amp;quot;times new roman&amp;quot; ; color: rgb(0 , 0 , 0)&quot;&gt;= 0, &lt;/span&gt;&lt;span style=&quot;font-size: 14.04pt ; font-family: &amp;quot;times new roman&amp;quot; ; color: rgb(0 , 0 , 0) ; font-style: italic&quot;&gt;t &lt;/span&gt;&lt;span style=&quot;font-size: 14.04pt ; font-family: &amp;quot;times new roman&amp;quot; ; color: rgb(0 , 0 , 0)&quot;&gt;= 14.&#xa;&lt;/span&gt;&lt;/div&gt;&lt;div&gt;&lt;span style=&quot;font-size: 14.04pt ; font-family: &amp;quot;times new roman&amp;quot; ; color: rgb(0 , 0 , 0) ; font-style: italic&quot;&gt;E &lt;/span&gt;&lt;span style=&quot;font-size: 14.04pt ; font-family: &amp;quot;times new roman&amp;quot; ; color: rgb(0 , 0 , 0)&quot;&gt;= {(&lt;/span&gt;&lt;span style=&quot;font-size: 14.04pt ; font-family: &amp;quot;times new roman&amp;quot; ; color: rgb(0 , 0 , 0) ; font-style: italic&quot;&gt;s&lt;/span&gt;&lt;span style=&quot;font-size: 14.04pt ; font-family: &amp;quot;times new roman&amp;quot; ; color: rgb(0 , 0 , 0)&quot;&gt;,1),(&lt;/span&gt;&lt;span style=&quot;font-size: 14.04pt ; font-family: &amp;quot;times new roman&amp;quot; ; color: rgb(0 , 0 , 0) ; font-style: italic&quot;&gt;s&lt;/span&gt;&lt;span style=&quot;font-size: 14.04pt ; font-family: &amp;quot;times new roman&amp;quot; ; color: rgb(0 , 0 , 0)&quot;&gt;,2),(&lt;/span&gt;&lt;span style=&quot;font-size: 14.04pt ; font-family: &amp;quot;times new roman&amp;quot; ; color: rgb(0 , 0 , 0) ; font-style: italic&quot;&gt;s&lt;/span&gt;&lt;span style=&quot;font-size: 14.04pt ; font-family: &amp;quot;times new roman&amp;quot; ; color: rgb(0 , 0 , 0)&quot;&gt;,3),(1,2),(1,4),(1,5),(2,6),(2,9), (3,2),(3,6),(3,7),(4,5),(4,8), &#xa;&lt;/span&gt;&lt;/div&gt;&lt;div&gt;&lt;span style=&quot;font-size: 14.04pt ; font-family: &amp;quot;times new roman&amp;quot; ; color: rgb(0 , 0 , 0)&quot;&gt; (4,11),(5,8),(5,10),(6,1), (7,10),(7,t),(8,&lt;/span&gt;&lt;span style=&quot;font-size: 14.04pt ; font-family: &amp;quot;times new roman&amp;quot; ; color: rgb(0 , 0 , 0) ; font-style: italic&quot;&gt;t&lt;/span&gt;&lt;span style=&quot;font-size: 14.04pt ; font-family: &amp;quot;times new roman&amp;quot; ; color: rgb(0 , 0 , 0)&quot;&gt;),(8,9),(8,12),(9,6),(9,10),(9,&lt;/span&gt;&lt;span style=&quot;font-size: 14.04pt ; font-family: &amp;quot;times new roman&amp;quot; ; color: rgb(0 , 0 , 0) ; font-style: italic&quot;&gt;t&lt;/span&gt;&lt;span style=&quot;font-size: 14.04pt ; font-family: &amp;quot;times new roman&amp;quot; ; color: rgb(0 , 0 , 0)&quot;&gt;), &#xa;&lt;/span&gt;&lt;/div&gt;&lt;div&gt;&lt;span style=&quot;font-size: 14.04pt ; font-family: &amp;quot;times new roman&amp;quot; ; color: rgb(0 , 0 , 0)&quot;&gt; (10,&lt;/span&gt;&lt;span style=&quot;font-size: 14.04pt ; font-family: &amp;quot;times new roman&amp;quot; ; color: rgb(0 , 0 , 0) ; font-style: italic&quot;&gt;t&lt;/span&gt;&lt;span style=&quot;font-size: 14.04pt ; font-family: &amp;quot;times new roman&amp;quot; ; color: rgb(0 , 0 , 0)&quot;&gt;),(11,1),(11,12),(12,13),(13,8),(13,&lt;/span&gt;&lt;span style=&quot;font-size: 14.04pt ; font-family: &amp;quot;times new roman&amp;quot; ; color: rgb(0 , 0 , 0) ; font-style: italic&quot;&gt;t&lt;/span&gt;&lt;span style=&quot;font-size: 14.04pt ; font-family: &amp;quot;times new roman&amp;quot; ; color: rgb(0 , 0 , 0)&quot;&gt;)}.&#xa;&lt;/span&gt;&lt;/div&gt;" style="text;whiteSpace=wrap;html=1;" vertex="1" parent="1">
          <mxGeometry x="39" y="-70" width="750" height="110" as="geometry" />
        </mxCell>
        <mxCell id="wEk-1-X2-ZqiwSnDbFUu-20" style="edgeStyle=orthogonalEdgeStyle;rounded=0;orthogonalLoop=1;jettySize=auto;html=1;entryX=0;entryY=0.5;entryDx=0;entryDy=0;exitX=0.5;exitY=0;exitDx=0;exitDy=0;" edge="1" parent="1" source="wEk-1-X2-ZqiwSnDbFUu-2" target="wEk-1-X2-ZqiwSnDbFUu-3">
          <mxGeometry relative="1" as="geometry" />
        </mxCell>
        <mxCell id="wEk-1-X2-ZqiwSnDbFUu-21" style="edgeStyle=orthogonalEdgeStyle;rounded=0;orthogonalLoop=1;jettySize=auto;html=1;exitX=1;exitY=0.5;exitDx=0;exitDy=0;" edge="1" parent="1" source="wEk-1-X2-ZqiwSnDbFUu-2" target="wEk-1-X2-ZqiwSnDbFUu-4">
          <mxGeometry relative="1" as="geometry" />
        </mxCell>
        <mxCell id="wEk-1-X2-ZqiwSnDbFUu-22" style="edgeStyle=orthogonalEdgeStyle;rounded=0;orthogonalLoop=1;jettySize=auto;html=1;exitX=0.5;exitY=1;exitDx=0;exitDy=0;entryX=0;entryY=0.5;entryDx=0;entryDy=0;" edge="1" parent="1" source="wEk-1-X2-ZqiwSnDbFUu-2" target="wEk-1-X2-ZqiwSnDbFUu-5">
          <mxGeometry relative="1" as="geometry" />
        </mxCell>
        <mxCell id="wEk-1-X2-ZqiwSnDbFUu-2" value="s" style="rounded=0;whiteSpace=wrap;html=1;" vertex="1" parent="1">
          <mxGeometry x="60" y="310" width="40" height="20" as="geometry" />
        </mxCell>
        <mxCell id="wEk-1-X2-ZqiwSnDbFUu-23" style="edgeStyle=orthogonalEdgeStyle;rounded=0;orthogonalLoop=1;jettySize=auto;html=1;entryX=0.5;entryY=0;entryDx=0;entryDy=0;" edge="1" parent="1" target="wEk-1-X2-ZqiwSnDbFUu-4">
          <mxGeometry relative="1" as="geometry">
            <mxPoint x="170" y="140" as="sourcePoint" />
          </mxGeometry>
        </mxCell>
        <mxCell id="wEk-1-X2-ZqiwSnDbFUu-24" style="edgeStyle=orthogonalEdgeStyle;rounded=0;orthogonalLoop=1;jettySize=auto;html=1;exitX=1;exitY=0.5;exitDx=0;exitDy=0;entryX=0.5;entryY=0;entryDx=0;entryDy=0;" edge="1" parent="1" source="wEk-1-X2-ZqiwSnDbFUu-3" target="wEk-1-X2-ZqiwSnDbFUu-6">
          <mxGeometry relative="1" as="geometry" />
        </mxCell>
        <mxCell id="wEk-1-X2-ZqiwSnDbFUu-27" style="edgeStyle=orthogonalEdgeStyle;rounded=0;orthogonalLoop=1;jettySize=auto;html=1;entryX=0;entryY=0.5;entryDx=0;entryDy=0;exitX=0.75;exitY=1;exitDx=0;exitDy=0;" edge="1" parent="1" source="wEk-1-X2-ZqiwSnDbFUu-3" target="wEk-1-X2-ZqiwSnDbFUu-7">
          <mxGeometry relative="1" as="geometry" />
        </mxCell>
        <mxCell id="wEk-1-X2-ZqiwSnDbFUu-3" value="1" style="rounded=0;whiteSpace=wrap;html=1;" vertex="1" parent="1">
          <mxGeometry x="150" y="120" width="40" height="20" as="geometry" />
        </mxCell>
        <mxCell id="wEk-1-X2-ZqiwSnDbFUu-28" style="edgeStyle=orthogonalEdgeStyle;rounded=0;orthogonalLoop=1;jettySize=auto;html=1;entryX=0.5;entryY=0;entryDx=0;entryDy=0;exitX=1;exitY=0.75;exitDx=0;exitDy=0;" edge="1" parent="1" source="wEk-1-X2-ZqiwSnDbFUu-4" target="wEk-1-X2-ZqiwSnDbFUu-8">
          <mxGeometry relative="1" as="geometry">
            <Array as="points">
              <mxPoint x="290" y="325" />
            </Array>
          </mxGeometry>
        </mxCell>
        <mxCell id="wEk-1-X2-ZqiwSnDbFUu-29" style="edgeStyle=orthogonalEdgeStyle;rounded=0;orthogonalLoop=1;jettySize=auto;html=1;entryX=0.5;entryY=0;entryDx=0;entryDy=0;exitX=1;exitY=0.25;exitDx=0;exitDy=0;" edge="1" parent="1" source="wEk-1-X2-ZqiwSnDbFUu-4" target="wEk-1-X2-ZqiwSnDbFUu-11">
          <mxGeometry relative="1" as="geometry">
            <Array as="points">
              <mxPoint x="440" y="315" />
            </Array>
          </mxGeometry>
        </mxCell>
        <mxCell id="wEk-1-X2-ZqiwSnDbFUu-4" value="2" style="rounded=0;whiteSpace=wrap;html=1;" vertex="1" parent="1">
          <mxGeometry x="150" y="310" width="40" height="20" as="geometry" />
        </mxCell>
        <mxCell id="wEk-1-X2-ZqiwSnDbFUu-30" style="edgeStyle=orthogonalEdgeStyle;rounded=0;orthogonalLoop=1;jettySize=auto;html=1;entryX=0.5;entryY=1;entryDx=0;entryDy=0;" edge="1" parent="1" source="wEk-1-X2-ZqiwSnDbFUu-5" target="wEk-1-X2-ZqiwSnDbFUu-4">
          <mxGeometry relative="1" as="geometry" />
        </mxCell>
        <mxCell id="wEk-1-X2-ZqiwSnDbFUu-31" style="edgeStyle=orthogonalEdgeStyle;rounded=0;orthogonalLoop=1;jettySize=auto;html=1;" edge="1" parent="1" source="wEk-1-X2-ZqiwSnDbFUu-5" target="wEk-1-X2-ZqiwSnDbFUu-8">
          <mxGeometry relative="1" as="geometry" />
        </mxCell>
        <mxCell id="wEk-1-X2-ZqiwSnDbFUu-32" style="edgeStyle=orthogonalEdgeStyle;rounded=0;orthogonalLoop=1;jettySize=auto;html=1;entryX=0;entryY=0.5;entryDx=0;entryDy=0;" edge="1" parent="1" source="wEk-1-X2-ZqiwSnDbFUu-5" target="wEk-1-X2-ZqiwSnDbFUu-9">
          <mxGeometry relative="1" as="geometry">
            <Array as="points">
              <mxPoint x="170" y="540" />
            </Array>
          </mxGeometry>
        </mxCell>
        <mxCell id="wEk-1-X2-ZqiwSnDbFUu-5" value="3" style="rounded=0;whiteSpace=wrap;html=1;" vertex="1" parent="1">
          <mxGeometry x="150" y="420" width="40" height="20" as="geometry" />
        </mxCell>
        <mxCell id="wEk-1-X2-ZqiwSnDbFUu-33" style="edgeStyle=orthogonalEdgeStyle;rounded=0;orthogonalLoop=1;jettySize=auto;html=1;entryX=0.5;entryY=0;entryDx=0;entryDy=0;exitX=0;exitY=0.5;exitDx=0;exitDy=0;" edge="1" parent="1" source="wEk-1-X2-ZqiwSnDbFUu-6" target="wEk-1-X2-ZqiwSnDbFUu-7">
          <mxGeometry relative="1" as="geometry" />
        </mxCell>
        <mxCell id="wEk-1-X2-ZqiwSnDbFUu-34" style="edgeStyle=orthogonalEdgeStyle;rounded=0;orthogonalLoop=1;jettySize=auto;html=1;entryX=0.25;entryY=0;entryDx=0;entryDy=0;exitX=0.5;exitY=1;exitDx=0;exitDy=0;" edge="1" parent="1" source="wEk-1-X2-ZqiwSnDbFUu-6" target="wEk-1-X2-ZqiwSnDbFUu-10">
          <mxGeometry relative="1" as="geometry" />
        </mxCell>
        <mxCell id="wEk-1-X2-ZqiwSnDbFUu-35" style="edgeStyle=orthogonalEdgeStyle;rounded=0;orthogonalLoop=1;jettySize=auto;html=1;entryX=0;entryY=0.5;entryDx=0;entryDy=0;" edge="1" parent="1" source="wEk-1-X2-ZqiwSnDbFUu-6" target="wEk-1-X2-ZqiwSnDbFUu-13">
          <mxGeometry relative="1" as="geometry" />
        </mxCell>
        <mxCell id="wEk-1-X2-ZqiwSnDbFUu-6" value="4" style="rounded=0;whiteSpace=wrap;html=1;" vertex="1" parent="1">
          <mxGeometry x="500" y="170" width="40" height="20" as="geometry" />
        </mxCell>
        <mxCell id="wEk-1-X2-ZqiwSnDbFUu-36" style="edgeStyle=orthogonalEdgeStyle;rounded=0;orthogonalLoop=1;jettySize=auto;html=1;entryX=0;entryY=0.5;entryDx=0;entryDy=0;" edge="1" parent="1" source="wEk-1-X2-ZqiwSnDbFUu-7" target="wEk-1-X2-ZqiwSnDbFUu-10">
          <mxGeometry relative="1" as="geometry">
            <Array as="points">
              <mxPoint x="490" y="250" />
              <mxPoint x="490" y="360" />
            </Array>
          </mxGeometry>
        </mxCell>
        <mxCell id="wEk-1-X2-ZqiwSnDbFUu-37" style="edgeStyle=orthogonalEdgeStyle;rounded=0;orthogonalLoop=1;jettySize=auto;html=1;entryX=0.5;entryY=0;entryDx=0;entryDy=0;exitX=0.5;exitY=1;exitDx=0;exitDy=0;" edge="1" parent="1" source="wEk-1-X2-ZqiwSnDbFUu-7" target="wEk-1-X2-ZqiwSnDbFUu-12">
          <mxGeometry relative="1" as="geometry">
            <Array as="points">
              <mxPoint x="360" y="280" />
              <mxPoint x="360" y="280" />
            </Array>
          </mxGeometry>
        </mxCell>
        <mxCell id="wEk-1-X2-ZqiwSnDbFUu-7" value="5" style="rounded=0;whiteSpace=wrap;html=1;" vertex="1" parent="1">
          <mxGeometry x="340" y="240" width="40" height="20" as="geometry" />
        </mxCell>
        <mxCell id="wEk-1-X2-ZqiwSnDbFUu-40" style="edgeStyle=orthogonalEdgeStyle;rounded=0;orthogonalLoop=1;jettySize=auto;html=1;entryX=0.5;entryY=0;entryDx=0;entryDy=0;" edge="1" parent="1" source="wEk-1-X2-ZqiwSnDbFUu-8" target="wEk-1-X2-ZqiwSnDbFUu-3">
          <mxGeometry relative="1" as="geometry">
            <mxPoint x="110" y="110" as="targetPoint" />
            <Array as="points">
              <mxPoint x="290" y="460" />
              <mxPoint x="30" y="460" />
              <mxPoint x="30" y="90" />
              <mxPoint x="170" y="90" />
            </Array>
          </mxGeometry>
        </mxCell>
        <mxCell id="wEk-1-X2-ZqiwSnDbFUu-8" value="6" style="rounded=0;whiteSpace=wrap;html=1;" vertex="1" parent="1">
          <mxGeometry x="270" y="420" width="40" height="20" as="geometry" />
        </mxCell>
        <mxCell id="wEk-1-X2-ZqiwSnDbFUu-41" style="edgeStyle=orthogonalEdgeStyle;rounded=0;orthogonalLoop=1;jettySize=auto;html=1;entryX=0;entryY=0.5;entryDx=0;entryDy=0;exitX=0.5;exitY=0;exitDx=0;exitDy=0;" edge="1" parent="1" source="wEk-1-X2-ZqiwSnDbFUu-9" target="wEk-1-X2-ZqiwSnDbFUu-12">
          <mxGeometry relative="1" as="geometry">
            <mxPoint x="200" y="520" as="sourcePoint" />
            <Array as="points">
              <mxPoint x="240" y="490" />
            </Array>
          </mxGeometry>
        </mxCell>
        <mxCell id="wEk-1-X2-ZqiwSnDbFUu-42" style="edgeStyle=orthogonalEdgeStyle;rounded=0;orthogonalLoop=1;jettySize=auto;html=1;entryX=0;entryY=0.75;entryDx=0;entryDy=0;exitX=0.5;exitY=1;exitDx=0;exitDy=0;" edge="1" parent="1" source="wEk-1-X2-ZqiwSnDbFUu-9" target="wEk-1-X2-ZqiwSnDbFUu-16">
          <mxGeometry relative="1" as="geometry">
            <Array as="points">
              <mxPoint x="240" y="600" />
            </Array>
          </mxGeometry>
        </mxCell>
        <mxCell id="wEk-1-X2-ZqiwSnDbFUu-9" value="7" style="rounded=0;whiteSpace=wrap;html=1;" vertex="1" parent="1">
          <mxGeometry x="220" y="530" width="40" height="20" as="geometry" />
        </mxCell>
        <mxCell id="wEk-1-X2-ZqiwSnDbFUu-43" style="edgeStyle=orthogonalEdgeStyle;rounded=0;orthogonalLoop=1;jettySize=auto;html=1;entryX=0.75;entryY=0;entryDx=0;entryDy=0;" edge="1" parent="1" target="wEk-1-X2-ZqiwSnDbFUu-16">
          <mxGeometry relative="1" as="geometry">
            <mxPoint x="540" y="370" as="sourcePoint" />
          </mxGeometry>
        </mxCell>
        <mxCell id="wEk-1-X2-ZqiwSnDbFUu-45" style="edgeStyle=orthogonalEdgeStyle;rounded=0;orthogonalLoop=1;jettySize=auto;html=1;entryX=1;entryY=0.25;entryDx=0;entryDy=0;exitX=0.25;exitY=1;exitDx=0;exitDy=0;" edge="1" parent="1" source="wEk-1-X2-ZqiwSnDbFUu-10" target="wEk-1-X2-ZqiwSnDbFUu-11">
          <mxGeometry relative="1" as="geometry" />
        </mxCell>
        <mxCell id="wEk-1-X2-ZqiwSnDbFUu-46" style="edgeStyle=orthogonalEdgeStyle;rounded=0;orthogonalLoop=1;jettySize=auto;html=1;exitX=0.75;exitY=0;exitDx=0;exitDy=0;entryX=0;entryY=0.5;entryDx=0;entryDy=0;" edge="1" parent="1" source="wEk-1-X2-ZqiwSnDbFUu-10" target="wEk-1-X2-ZqiwSnDbFUu-14">
          <mxGeometry relative="1" as="geometry" />
        </mxCell>
        <mxCell id="wEk-1-X2-ZqiwSnDbFUu-10" value="8" style="rounded=0;whiteSpace=wrap;html=1;" vertex="1" parent="1">
          <mxGeometry x="510" y="350" width="40" height="20" as="geometry" />
        </mxCell>
        <mxCell id="wEk-1-X2-ZqiwSnDbFUu-47" style="edgeStyle=orthogonalEdgeStyle;rounded=0;orthogonalLoop=1;jettySize=auto;html=1;entryX=1;entryY=0.5;entryDx=0;entryDy=0;exitX=0;exitY=0.5;exitDx=0;exitDy=0;" edge="1" parent="1" source="wEk-1-X2-ZqiwSnDbFUu-11" target="wEk-1-X2-ZqiwSnDbFUu-8">
          <mxGeometry relative="1" as="geometry" />
        </mxCell>
        <mxCell id="wEk-1-X2-ZqiwSnDbFUu-48" style="edgeStyle=orthogonalEdgeStyle;rounded=0;orthogonalLoop=1;jettySize=auto;html=1;exitX=0.5;exitY=1;exitDx=0;exitDy=0;entryX=1;entryY=0.5;entryDx=0;entryDy=0;" edge="1" parent="1" source="wEk-1-X2-ZqiwSnDbFUu-11" target="wEk-1-X2-ZqiwSnDbFUu-12">
          <mxGeometry relative="1" as="geometry" />
        </mxCell>
        <mxCell id="wEk-1-X2-ZqiwSnDbFUu-49" style="edgeStyle=orthogonalEdgeStyle;rounded=0;orthogonalLoop=1;jettySize=auto;html=1;exitX=1;exitY=0.75;exitDx=0;exitDy=0;entryX=0.25;entryY=0;entryDx=0;entryDy=0;" edge="1" parent="1" source="wEk-1-X2-ZqiwSnDbFUu-11" target="wEk-1-X2-ZqiwSnDbFUu-16">
          <mxGeometry relative="1" as="geometry" />
        </mxCell>
        <mxCell id="wEk-1-X2-ZqiwSnDbFUu-11" value="9" style="rounded=0;whiteSpace=wrap;html=1;" vertex="1" parent="1">
          <mxGeometry x="420" y="420" width="40" height="20" as="geometry" />
        </mxCell>
        <mxCell id="wEk-1-X2-ZqiwSnDbFUu-50" style="edgeStyle=orthogonalEdgeStyle;rounded=0;orthogonalLoop=1;jettySize=auto;html=1;exitX=0.5;exitY=1;exitDx=0;exitDy=0;entryX=0;entryY=0.25;entryDx=0;entryDy=0;" edge="1" parent="1" source="wEk-1-X2-ZqiwSnDbFUu-12" target="wEk-1-X2-ZqiwSnDbFUu-16">
          <mxGeometry relative="1" as="geometry" />
        </mxCell>
        <mxCell id="wEk-1-X2-ZqiwSnDbFUu-12" value="10" style="rounded=0;whiteSpace=wrap;html=1;" vertex="1" parent="1">
          <mxGeometry x="340" y="480" width="40" height="20" as="geometry" />
        </mxCell>
        <mxCell id="wEk-1-X2-ZqiwSnDbFUu-51" style="edgeStyle=orthogonalEdgeStyle;rounded=0;orthogonalLoop=1;jettySize=auto;html=1;exitX=0.5;exitY=0;exitDx=0;exitDy=0;entryX=0.75;entryY=0;entryDx=0;entryDy=0;" edge="1" parent="1" source="wEk-1-X2-ZqiwSnDbFUu-13" target="wEk-1-X2-ZqiwSnDbFUu-3">
          <mxGeometry relative="1" as="geometry">
            <Array as="points">
              <mxPoint x="780" y="90" />
              <mxPoint x="180" y="90" />
            </Array>
          </mxGeometry>
        </mxCell>
        <mxCell id="wEk-1-X2-ZqiwSnDbFUu-52" style="edgeStyle=orthogonalEdgeStyle;rounded=0;orthogonalLoop=1;jettySize=auto;html=1;exitX=0.5;exitY=1;exitDx=0;exitDy=0;entryX=1;entryY=0.5;entryDx=0;entryDy=0;" edge="1" parent="1" source="wEk-1-X2-ZqiwSnDbFUu-13" target="wEk-1-X2-ZqiwSnDbFUu-14">
          <mxGeometry relative="1" as="geometry" />
        </mxCell>
        <mxCell id="wEk-1-X2-ZqiwSnDbFUu-13" value="11" style="rounded=0;whiteSpace=wrap;html=1;" vertex="1" parent="1">
          <mxGeometry x="760" y="170" width="40" height="20" as="geometry" />
        </mxCell>
        <mxCell id="wEk-1-X2-ZqiwSnDbFUu-53" style="edgeStyle=orthogonalEdgeStyle;rounded=0;orthogonalLoop=1;jettySize=auto;html=1;exitX=0.5;exitY=1;exitDx=0;exitDy=0;entryX=0.5;entryY=0;entryDx=0;entryDy=0;" edge="1" parent="1" source="wEk-1-X2-ZqiwSnDbFUu-14" target="wEk-1-X2-ZqiwSnDbFUu-15">
          <mxGeometry relative="1" as="geometry" />
        </mxCell>
        <mxCell id="wEk-1-X2-ZqiwSnDbFUu-14" value="12" style="rounded=0;whiteSpace=wrap;html=1;" vertex="1" parent="1">
          <mxGeometry x="640" y="220" width="40" height="20" as="geometry" />
        </mxCell>
        <mxCell id="wEk-1-X2-ZqiwSnDbFUu-54" style="edgeStyle=orthogonalEdgeStyle;rounded=0;orthogonalLoop=1;jettySize=auto;html=1;exitX=0;exitY=0.75;exitDx=0;exitDy=0;entryX=1;entryY=0.25;entryDx=0;entryDy=0;" edge="1" parent="1" source="wEk-1-X2-ZqiwSnDbFUu-15" target="wEk-1-X2-ZqiwSnDbFUu-10">
          <mxGeometry relative="1" as="geometry" />
        </mxCell>
        <mxCell id="wEk-1-X2-ZqiwSnDbFUu-55" style="edgeStyle=orthogonalEdgeStyle;rounded=0;orthogonalLoop=1;jettySize=auto;html=1;entryX=1;entryY=0.5;entryDx=0;entryDy=0;exitX=0.5;exitY=1;exitDx=0;exitDy=0;" edge="1" parent="1" source="wEk-1-X2-ZqiwSnDbFUu-15" target="wEk-1-X2-ZqiwSnDbFUu-16">
          <mxGeometry relative="1" as="geometry" />
        </mxCell>
        <mxCell id="wEk-1-X2-ZqiwSnDbFUu-15" value="13" style="rounded=0;whiteSpace=wrap;html=1;" vertex="1" parent="1">
          <mxGeometry x="640" y="340" width="40" height="20" as="geometry" />
        </mxCell>
        <mxCell id="wEk-1-X2-ZqiwSnDbFUu-16" value="t" style="rounded=0;whiteSpace=wrap;html=1;" vertex="1" parent="1">
          <mxGeometry x="510" y="585" width="40" height="20" as="geometry" />
        </mxCell>
      </root>
    </mxGraphModel>
  </diagram>
</mxfile>
